<svg width="20" height="20" viewBox="0 0 20 20" fill="none" xmlns="http://www.w3.org/2000/svg">
<path d="M2.61384 2.23828L10.3462 9.97066L2.66886 17.8741C2.66127 17.8611 2.654 17.8479 2.64704 17.8346C2.63123 17.8045 2.61637 17.7739 2.60278 17.7426C2.52436 17.5611 2.48927 17.3619 2.50286 17.1611V2.83745C2.49148 2.63003 2.53037 2.42483 2.61384 2.23828Z" fill="white"/>
<path d="M3.05682 1.76557C3.08275 1.75324 3.10931 1.74249 3.13619 1.73237C3.24211 1.69253 3.35499 1.6704 3.47008 1.66692C3.71544 1.65997 3.95512 1.73965 4.14736 1.89173L13.196 7.03738L10.7974 9.50618L3.05682 1.76557Z" fill="white"/>
<path d="M13.7743 7.37159L11.2556 9.96434L13.873 12.5817L16.7683 10.9382C17.6748 10.4203 17.6748 9.57827 16.7683 9.06668L13.7743 7.37159Z" fill="white"/>
<path d="M13.2858 12.9103L10.8044 10.4288L3.17698 18.2807C3.27057 18.3114 3.3689 18.3291 3.46913 18.3326C3.71386 18.3408 3.95385 18.263 4.14736 18.1128L13.2858 12.9103Z" fill="white"/>
</svg>
