<svg width="20" height="20" viewBox="0 0 20 20" fill="none" xmlns="http://www.w3.org/2000/svg">
<path d="M14.6467 10.5312C14.6541 9.89201 14.8238 9.26517 15.1398 8.7095C15.4558 8.15383 15.9077 7.68752 16.4533 7.35433C16.1064 6.85984 15.649 6.45296 15.1175 6.16595C14.586 5.87894 13.995 5.71969 13.3912 5.70082C12.1128 5.56303 10.865 6.46634 10.2067 6.46634C9.54836 6.46634 8.53023 5.70082 7.4432 5.70082C6.74084 5.72367 6.0564 5.92822 5.45668 6.29449C4.85695 6.66077 4.36243 7.17626 4.02136 7.79067C2.57454 10.3858 3.64626 14.1291 5.06246 16.2266C5.77438 17.2447 6.59348 18.3777 7.68816 18.3318C8.78285 18.2858 9.14264 17.6581 10.4287 17.6581C11.7148 17.6581 12.0669 18.3318 13.1769 18.3088C14.2869 18.2858 15.0371 17.2907 15.7184 16.2649C16.2297 15.5434 16.6225 14.7449 16.882 13.8995C16.2197 13.6197 15.6545 13.1511 15.257 12.552C14.8594 11.953 14.6472 11.2501 14.6467 10.5312V10.5312Z" fill="white"/>
<path d="M12.5261 4.33814C13.1469 3.59247 13.4518 2.63378 13.3758 1.6665C12.4269 1.76891 11.5505 2.22212 10.9185 2.93725C10.6111 3.28755 10.3758 3.69504 10.226 4.1364C10.0763 4.57776 10.015 5.04432 10.0458 5.50937C10.5208 5.51406 10.9908 5.41111 11.4203 5.20827C11.8499 5.00542 12.2279 4.70794 12.5261 4.33814V4.33814Z" fill="white"/>
</svg>
